<?xml version="1.0" standalone="no"?>
<!DOCTYPE svg PUBLIC "-//W3C//DTD SVG 20010904//EN"
 "http://www.w3.org/TR/2001/REC-SVG-20010904/DTD/svg10.dtd">
<svg version="1.0" xmlns="http://www.w3.org/2000/svg"
 width="500.000000pt" height="500.000000pt" viewBox="0 0 500.000000 500.000000"
 preserveAspectRatio="xMidYMid meet">

<g transform="translate(0.000000,500.000000) scale(0.100000,-0.100000)"
fill="#1441FF" stroke="none">
<path d="M2125 4754 c-662 -89 -1249 -457 -1618 -1014 -119 -180 -262 -497
-283 -628 l-6 -37 239 -63 c131 -34 241 -62 244 -62 4 0 21 44 39 97 159 474
512 867 965 1075 256 117 435 162 695 174 292 14 625 -60 895 -199 366 -188
661 -489 835 -852 35 -74 110 -275 110 -296 0 -6 -93 -8 -226 -7 l-226 3 -27
65 c-72 167 -177 319 -314 453 -210 206 -490 347 -767 387 -106 15 -328 13
-443 -5 -287 -43 -554 -188 -774 -418 -331 -347 -454 -811 -343 -1298 110
-479 503 -883 981 -1009 423 -111 860 -32 1214 219 105 74 266 236 334 335 57
83 161 279 161 302 0 12 -118 14 -692 16 l-693 3 -3 193 -2 192 946 0 947 0
-7 -52 c-29 -215 -90 -455 -154 -603 -204 -469 -649 -863 -1145 -1011 -196
-59 -275 -69 -532 -69 -214 0 -252 3 -350 24 -291 62 -537 173 -765 347 -276
210 -499 518 -611 846 -18 51 -33 94 -34 96 -3 3 -468 -128 -474 -134 -3 -3 6
-37 18 -77 185 -582 624 -1085 1176 -1348 210 -99 332 -140 550 -184 177 -35
345 -49 535 -42 194 7 339 30 538 87 1126 322 1821 1443 1615 2605 -20 114
-90 351 -143 479 -184 453 -514 842 -930 1099 -97 59 -300 156 -411 195 -128
45 -358 100 -492 117 -144 18 -433 18 -572 -1z"/>
</g>
</svg>
